<?xml version="1.0" encoding="utf-8"?>
<!-- Generator: Adobe Illustrator 28.0.0, SVG Export Plug-In . SVG Version: 6.00 Build 0)  -->
<svg version="1.1"
	 id="svg2" xmlns:dc="http://purl.org/dc/elements/1.1/" xmlns:cc="http://creativecommons.org/ns#" xmlns:svg="http://www.w3.org/2000/svg" xmlns:rdf="http://www.w3.org/1999/02/22-rdf-syntax-ns#"
	 xmlns="http://www.w3.org/2000/svg" xmlns:xlink="http://www.w3.org/1999/xlink" x="0px" y="0px" viewBox="0 0 600 600"
	 style="enable-background:new 0 0 600 600;" xml:space="preserve">
<style type="text/css">
	.st0{fill:#231F20;}
	.st1{fill:#FFFFFF;}
	.st2{font-family:'ScriptMTBold';}
	.st3{font-size:80px;}
</style>
<g>
	<g>
		<path id="rect824" class="st0" d="M37.5,0h525C583.2,0,600,16.8,600,37.5v525c0,20.7-16.8,37.5-37.5,37.5h-525
			C16.8,600,0,583.2,0,562.5v-525C0,16.8,16.8,0,37.5,0z"/>
	</g>
	<g id="g911" transform="matrix(1.0949195,0,0,-1.0949195,357.48328,58.241768)">
		<path id="path913" class="st1" d="M0,0l6.9-0.6l6.8-1.6l6.4-2.3L26-7.8l5.6-3.9l5-4.6l4.4-5l3.6-5.6l2.9-5.9l2.2-6.3l5-2.5
			l5.1-2.9l4.7-3.4l4.4-3.7l4.3-4.2l3.9-4.4l3.2-4.7l2.9-4.9l2.3-5l1.7-5.1l5.3-4l5.1-4.2l4.7-4.7l4.3-5.2l3.9-5.3l3.4-5.9l2.8-5.9
			l2-6.2l1.6-6.4l0.7-6.5l5.2-4.6l4.6-4.8l4.1-5.2l3.4-5.3l2.8-5.6l2.3-5.9l1.7-6.1l1.1-6.4l0.6-6.7l0.2-6.8l4.6-5.1l4-5.6l3.2-5.8
			l2.4-6.2l1.7-6.5l1.3-6.5l0.6-6.8v-6.9l-0.5-6.8l-0.8-6.9l3.7-4.2l3.3-4.7l2.5-5.1l1.8-5.4l1.4-5.7l0.5-5.9v-5.8l-0.6-5.7
			l-1.3-5.8l-1.7-5.3l1.3-4.3l1.1-4.3l1-4.4l0.6-4.4l0.5-4.4l0.1-4.6l-0.2-4.4l-0.5-4.6l-0.8-4.4l-1.3-4.4l23.6-21l-0.6-97.9
			l-501.6-0.4l-0.1,104.7l19.5,21l-1.4,3.9l-1,4.1l-0.6,4.3l-0.1,4.4l0.1,4.4l0.6,4.3l1,4.3l1.2,4l1.8,3.7l2.1,3.4l-2.6,5.6
			l-1.6,5.9l-0.7,5.9v6l0.8,5.8l1.6,5.8l2.1,5.8l2.6,5.6l3.2,5.2l3.6,5l-1.1,6.8l-0.5,6.8l0.1,6.8l0.8,6.7l1.3,6.4l2,6.4l2.5,6.1
			l3.3,5.9l3.8,5.5l4.6,5.3l0.4,6.2l0.8,6.3l1.3,6.2l1.9,6.2l2.3,6l2.8,5.7l3.4,5.3l4,5l4.4,4.6l5.3,4l1.3,6.3l1.7,6.3l2.3,6.4
			l2.8,6.1l3.4,5.9l3.8,5.6l4.3,5.2l4.9,4.8l5.5,4.2l5.9,3.5l1.6,4.8l2.2,4.8l2.6,4.8l3.1,4.4l3.5,4.3l4,4l4.3,3.5l4.4,3.1l5,2.5
			l5.1,1.9l2.3,6.4l3.2,6.1l3.8,5.7l4.6,5.2l5.2,4.6l5.7,3.8l6.2,3.2l6.5,2.3l6.8,1.4l7.1,0.5l3.7,4.8l4,4.5l4.5,4.3l4.7,3.7
			l5.1,3.4l5.3,2.8l5.5,2.5l5.9,1.9l5.9,1.3l6.2,0.7l6.5-0.5l6.5-1.1l6.2-1.7l5.9-2.3l5.6-3.1l5.5-3.4l5-4l4.7-4.3L-3.9,5L0,0"/>
	</g>
	<g id="g933" transform="matrix(1.0949195,0,0,-1.0949195,347.30052,65.928107)">
		<path id="path935" d="M-41.9,24.1l-5.9-0.1l-4.4-1l-4.5-1.4l-4.4-1.9l-4.4-2.1l-4-2.6l-3.9-2.9l-3.4-3.3l-3.1-3.5l-2.5-4l-1.9-4.2
			L-91-3.1l-6.9-1.2l-6.8-2.1l-6.4-2.9l-6.2-3.9l-5.6-4.6l-4.7-5.3l-3.8-5.9l-2.8-6.5l-1.4-7l-5.9-1.2l-5.3-2l-4.8-2.6l-4.4-3.3
			l-3.8-4l-3.5-4.3l-3.1-4.7l-2.4-5l-2.2-5l-1.6-5.3l-3.4-1.5l-3.2-1.9l-3.1-2.1l-2.9-2.3l-2.6-2.6l-2.6-2.8l-2.4-2.8l-2.2-3l-2-3.1
			l-1.7-3l-1.6-2.9l-1-2.9l-0.7-3.4l-0.5-3.3l-0.2-3.2l-0.6-3.3l-0.7-3l-1.2-2.9l-1.9-2.7l-2.6-2.1l-4.7-3.2l-4-3.8l-3.4-4.4l-3-4.8
			l-2.3-5.3l-1.8-5.5l-1.2-5.6l-0.6-5.7v-5.6l0.5-5.6l-5.1-4.6l-4.5-5l-3.6-5.6l-2.9-6.1l-2-6.4l-1.4-6.5l-0.6-6.8l0.2-6.9l1.1-6.8
			l1.9-6.7l-4.7-4.3l-3.6-4.9l-2.8-5.3l-1.8-5.6l-1.1-5.9l-0.2-5.9l0.5-5.9l1.1-5.9l1.8-5.8l2.5-5.3l-3.1-3.8l-2.2-4.1l-1.6-4.3
			l-1-4.4l-0.4-4.7l0.2-4.6l0.8-4.5l1.3-4.6l1.7-4.3l2.3-4l-2.6-2.5l-2.6-2.3l-2.6-2.1l-2.5-2.2l-2.7-2l-2.5-2.1l-2.6-2l-2.6-2.2
			l-2.6-2.2l-2.6-2.5l0.5-87.7l479,0.4l0.4,82.1l-2.8,2.3l-2.6,2.1l-2.7,2.2l-2.5,2.1l-2.6,2.1l-2.6,2.2l-2.5,2.2l-2.6,2.3l-2.5,2.5
			l-2.5,2.7l2.3,4.1l1.7,4.4l1.2,4.7l0.7,4.6l0.1,4.7l-0.5,4.8l-1.1,4.7L173-312l-2,4.3l-2.6,4.1l2.1,3.2l1.7,3.8l1.3,3.8l0.8,4.1
			l0.5,4.1v4.2l-0.4,4.2l-0.6,4l-1.1,4l-1.3,3.7l-0.6,2.1l-1.3,2l-1.6,1.9l-1.7,2l-1.7,1.7l-1.6,1.9l-1.2,1.9l-0.6,1.9l0.1,1.9
			l1,2.1l1.4,6.2l0.7,6.4l-0.1,6.2l-0.8,6.1l-1.6,5.8l-2,5.6l-2.9,5.4l-3.2,5l-4,4.5l-4.3,4.3l0.4,6.5l-0.4,6.4l-0.9,6.4l-1.4,6.2
			l-2.2,5.9l-2.8,5.6l-3.5,5.3l-4.3,4.8l-4.9,4.3l-5.6,4l-0.2,6.8l-1,6.7l-1.8,6.2l-2.5,6.1l-3.2,5.6l-3.9,5.3l-4.3,4.9l-5.1,4.6
			l-5.5,4l-5.8,3.6l-1.2,5.3l-1.7,5.2l-2.5,4.8l-3,4.6l-3.5,4.2l-4.1,3.8l-4.3,3.1L61.4-47l-5.1,2l-5.5,1.3L50-39.1l-1.4,4.7
			l-1.8,4.7l-2.5,4.3l-2.8,4.1l-3.3,3.7l-3.7,3.4l-4.1,2.7l-4.1,2.8l-4.3,2l-3.8,1.3l-4.3,1.2L7.6-3.3L2.3-2.9l-2.4,3.7l-3,4
			l-3.5,4.3l-4.1,3.7l-4.3,3.3L-20,19l-5.1,2.2l-5.5,1.6l-5.6,0.9L-41.9,24.1z M-44.2,10.5l4.9-0.1l4.8-0.7l4.6-1.2l4.5-1.7l4.3-2.3
			l3.7-2.7l3.7-3.1l3.2-3.5l2.7-3.8l2.4-4.1l0.7-1.1l0.5-1.1v-1l-0.2-1.1l-0.6-0.9l-0.7-1.1l-0.8-0.7l-1.1-0.8l-1-0.6l-1-0.4
			l-5.1-2.9l-5.5-2.2l-5.8-1.6l-6.1-0.9l-6.3-0.6l-6.3,0.1l-6.1,0.7l-6.1,1.1l-5.7,1.6l-5.3,2.2l-1.2,0.6l-1.2,0.6l-1.2,0.5
			l-1.3,0.7l-1.1,0.7L-75-20l-1,0.8l-1,0.8l-1.1,0.9l-0.7,1.1l1.5,4.2l2.2,4l2.6,3.6l3.3,3.4l3.6,2.9l3.9,2.6l4.3,2.2l4.3,1.7
			l4.4,1.3L-44.2,10.5z M-98.2-22.7h6.2l5.7-1.1l5.6-1.6l5.2-2.2l5.2-2.5l5.1-2.5l5.2-2.2l5.6-1.6l5.7-1h6.3l7.6-0.5l7.2,1.1
			l6.9,2.3l6.7,2.8l6.5,3l6.4,2.7l6.5,1.7l6.8,0.6l6.9-1.4l7.5-3.7l2.8-1.9l2.6-2.1l2.3-2.3l2-2.5l1.8-2.5l1.6-2.8l1.2-2.8l1-2.9
			l0.6-2.9l0.4-2.9l-15.4-6.9l-16.5-5.3l-17.5-3.8l-17.9-2.2l-18.2-0.6l-18.1,1l-17.7,2.5l-17.2,4.3l-16,5.9L-126-52l-1.2,1.2l1.2,4
			l1.6,3.7l2.2,3.7l2.6,3.3l2.9,3.1l3.3,2.8l3.4,2.5l3.9,2.1l3.9,1.6L-98.2-22.7z M-135.7-59.5l16.3-8.2l17.7-6.4l18.8-4.6l19.5-2.9
			l19.9-1.1l20,0.6L-4-79.7l19,4L32.9-70l16.7,7.5l4.3-1l4-1.4l3.7-2.2l3.3-2.7l2.9-3l2.5-3.4l2.2-3.7l1.6-3.8l1.3-4l1-4l6.4-2.2
			l5.9-3l5.2-4l4.4-4.7l3.7-5.3l2.9-5.8l1.9-5.9l1.3-6.4l0.1-6.4l-0.9-6.4l5.6-3.5l5.1-4.3l4.5-5.2l3.8-5.7l3.2-6.1l2.3-6.1l1.4-6
			l0.5-5.7l-0.6-5.2l-1.9-4.3l5.2-4.2l4.3-4.9l3.6-5.4l2.7-5.8l1.9-6.1l1.1-6.4l0.4-6.4l-0.5-6.4l-1.2-6.3l-1.9-5.9l4.4-4.3l3.8-4.9
			l3.1-5.2l2.2-5.5l1.4-5.7l0.6-5.9l-0.4-6l-1.3-5.8l-2.2-5.6l-3.2-5.3l2.3-3.4l2.1-3.7l1.7-3.7l1.2-4l0.6-4.1l0.1-4l-0.6-4
			l-1.2-3.7l-2.2-3.5l-3.1-3.2l-15.6-7.4l-16-6.8l-16.3-6.1l-16.6-5.5l-16.9-4.6l-17-4l-17.2-3.4l-17.3-2.6l-17.3-2.1l-17.3-1.6
			l-0.2,6.7v6.9l0.2,7v6.9l-0.5,6.8l-1.2,6.4l-1.9,5.9l-3.2,5.5l-4.6,4.7l-6.2,4l-1.9,0.7l-2,0.8l-2.1,0.5l-2,0.6l-2,0.4l-2.2,0.4
			l-2.2,0.1h-2.3l-2.2-0.2l-2.2-0.4l-8.2-2.9l-6.3-4.1l-4.5-5.3l-3.2-6.3l-1.9-6.9l-1.1-7.4L-76-364v-7.6l0.2-7.3v-7l-18.1,1.7
			l-17.7,2.3l-17.5,2.9l-17.2,3.5l-16.9,4.2l-16.6,4.9l-16.5,5.6l-16,6.4l-15.9,7l-15.5,8l-1.9,1.9l-1.7,2.2l-1.2,2.3l-1.1,2.5
			l-0.8,2.6l-0.5,2.7l-0.2,2.7l0.1,2.8l0.4,2.7l0.8,2.8l0.4,1.7l0.8,1.6l1.1,1.4l1.2,1.4l1.4,1.4l1.3,1.3l1.2,1.3l0.8,1.3l0.6,1.5
			l0.2,1.6l-2,2.5l-1.8,2.7l-1.5,2.8l-1.3,3.2l-0.8,3.1l-0.6,3.4l-0.4,3.3v3.4l0.4,3.4l0.8,3.4l0.6,2.1l1,2.1l1,2l1.3,1.9l1.4,1.9
			l1.4,1.7l1.7,1.6l1.7,1.7l1.8,1.5l2,1.7l-1.8,6.3l-1.1,6.5l-0.2,6.5l0.5,6.4l1.1,6.4l1.9,6.2l2.7,5.9l3.4,5.5l4.3,5l5.1,4.7
			l-0.7,6.2l0.1,6.1l0.7,5.9l1.4,5.7l2.3,5.4l2.9,5.2l3.5,4.8l4.3,4.4l4.9,4.1l5.5,3.6l-0.2,6.8l0.8,6.8l1.7,6.5l2.6,6.2l3.1,5.9
			l4.1,5.5l4.6,5l5.3,4.2l5.9,3.8l6.5,3.1l0.8,3.5l1.2,3.4l1.7,3.1l1.9,3.1l2.3,2.8l2.5,2.6l2.9,2.3l3,2.1l3.2,1.7L-135.7-59.5z
			 M-248.4-352.6l30.1-13.7l31.5-11.5l32.6-9.2l33.7-6.8l34.1-4.5l34.6-2.1l34.6,0.2l34.4,2.6l33.8,5.3l33.2,7.6l7.9,2.3l7.9,2.5
			l7.9,2.5l7.8,2.7l7.6,2.6l7.6,2.8l7.6,2.8l7.7,3.1l7.5,3l7.5,3.3l1.4-1.7l1.6-1.4l1.3-1.3l1.6-1.3l1.4-1l1.5-1l1.4-1l1.4-0.7
			l1.4-0.8l1.4-0.5l-33.7-9.1l42.1-7l0.2-57.2l-455.9,0.5v61.4l42.9,6.4l-35.4,7.9L-248.4-352.6z"/>
	</g>
	<text transform="matrix(1.0776 0 0 1 182.8031 269.9358)" class="st0 st2 st3">Classic</text>
	<text transform="matrix(1 0 0 1 118.1484 378.7676)" class="st2 st3">Fencing Inc.</text>
</g>
</svg>
